<svg width="157" height="70" viewBox="0 0 157 70" fill="none" xmlns="http://www.w3.org/2000/svg">
<path d="M153.682 34.9999C153.682 52.5726 139.436 66.8181 121.864 66.8181C104.291 66.8181 90.0454 52.5726 90.0454 34.9999C90.0454 17.4272 104.291 3.1817 121.864 3.1817C139.436 3.1817 153.682 17.4272 153.682 34.9999Z" fill="#FFE600"/>
<path fill-rule="evenodd" clip-rule="evenodd" d="M156.863 35C156.863 54.33 141.193 70 121.863 70C102.533 70 86.8634 54.33 86.8634 35C86.8634 15.67 102.533 0 121.863 0C141.193 0 156.863 15.67 156.863 35ZM121.863 66.8182C139.436 66.8182 153.682 52.5727 153.682 35C153.682 17.4273 139.436 3.18182 121.863 3.18182C104.291 3.18182 90.0452 17.4273 90.0452 35C90.0452 52.5727 104.291 66.8182 121.863 66.8182Z" fill="black"/>
<path d="M131.932 34.1849C132.417 39.734 128.312 44.626 122.763 45.1115C117.214 45.597 112.322 41.4921 111.837 35.943C111.351 30.3939 115.456 25.5019 121.005 25.0165C126.554 24.531 131.446 28.6359 131.932 34.1849Z" fill="black"/>
<path d="M122.537 13.5898C122.597 14.2776 121.918 14.9243 120.926 15.2132L122.494 33.1304L134.055 19.3526C133.408 18.5473 133.223 17.6281 133.667 17.0992C134.218 16.4427 135.529 16.6362 136.596 17.5313C137.663 18.4265 138.081 19.6843 137.53 20.3408C137.086 20.8696 136.149 20.8469 135.243 20.35L123.683 34.1279L141.6 32.5603C141.712 31.5336 142.231 30.7528 142.919 30.6926C143.773 30.6179 144.563 31.682 144.684 33.0692C144.806 34.4565 144.212 35.6417 143.358 35.7164C142.671 35.7765 142.024 35.0976 141.735 34.1061L123.818 35.6736L137.596 47.2346C138.401 46.5881 139.32 46.4029 139.849 46.8467C140.505 47.3975 140.312 48.7089 139.417 49.7756C138.522 50.8424 137.264 51.2607 136.607 50.7098C136.079 50.266 136.101 49.3287 136.598 48.4233L122.82 36.8623L124.388 54.7795C125.415 54.8919 126.195 55.4108 126.256 56.0986C126.33 56.9523 125.266 57.7428 123.879 57.8641C122.492 57.9855 121.307 57.3919 121.232 56.5381C121.172 55.8504 121.851 55.2037 122.842 54.9148L121.275 36.9975L109.714 50.7754C110.36 51.5807 110.545 52.4999 110.102 53.0288C109.551 53.6853 108.239 53.4918 107.173 52.5966C106.106 51.7015 105.688 50.4437 106.238 49.7872C106.682 49.2584 107.62 49.2811 108.525 49.778L120.086 36.0001L102.169 37.5677C102.056 38.5943 101.537 39.3752 100.85 39.4354C99.9959 39.5101 99.2055 38.446 99.0841 37.0587C98.9627 35.6715 99.5564 34.4863 100.41 34.4116C101.098 34.3515 101.745 35.0304 102.033 36.0219L119.951 34.4543L106.173 22.8934C105.368 23.5399 104.448 23.7251 103.919 23.2813C103.263 22.7305 103.456 21.4191 104.352 20.3524C105.247 19.2856 106.505 18.8673 107.161 19.4182C107.69 19.862 107.667 20.7993 107.17 21.7047L120.948 33.2657L119.381 15.3484C118.354 15.2361 117.573 14.7171 117.513 14.0294C117.438 13.1757 118.502 12.3852 119.889 12.2638C121.277 12.1425 122.462 12.7361 122.537 13.5898Z" fill="black"/>
<path d="M128.884 19.2986C128.72 19.8285 128.024 20.1 127.206 20.0089L122.92 33.8144L135.611 27.1365C135.38 26.3382 135.522 25.5976 136.009 25.3413C136.614 25.0231 137.52 25.5715 138.034 26.5661C138.547 27.5607 138.473 28.625 137.868 28.9432C137.381 29.1995 136.698 28.8934 136.183 28.2447L123.492 34.9227L137.153 39.2842C137.547 38.5555 138.166 38.135 138.691 38.3024C139.342 38.5102 139.6 39.5452 139.268 40.6141C138.937 41.683 138.14 42.3811 137.489 42.1733C136.965 42.0059 136.695 41.3016 136.783 40.4752L123.122 36.1137L129.751 48.9598C130.54 48.7275 131.273 48.8734 131.527 49.3664C131.843 49.9785 131.302 50.8939 130.32 51.4109C129.337 51.928 128.285 51.8509 127.969 51.2389C127.714 50.7457 128.016 50.0558 128.656 49.5359L122.027 36.6898L117.741 50.4954C118.462 50.8956 118.879 51.5224 118.715 52.0523C118.51 52.7101 117.487 52.9696 116.43 52.6319C115.372 52.2942 114.68 51.4872 114.884 50.8294C115.049 50.2995 115.745 50.028 116.562 50.1191L120.848 36.3136L108.158 42.9915C108.389 43.7898 108.246 44.5303 107.759 44.7867C107.154 45.1048 106.248 44.5565 105.735 43.5618C105.221 42.5672 105.296 41.503 105.9 41.1848C106.387 40.9285 107.07 41.2345 107.586 41.8833L120.277 35.2053L106.615 30.8438C106.221 31.5725 105.602 31.993 105.078 31.8256C104.427 31.6178 104.168 30.5828 104.5 29.5139C104.832 28.445 105.629 27.7469 106.28 27.9547C106.804 28.1221 107.074 28.8264 106.985 29.6528L120.646 34.0143L114.018 21.1682C113.229 21.4005 112.496 21.2546 112.241 20.7615C111.926 20.1495 112.466 19.2341 113.449 18.7171C114.431 18.2 115.484 18.277 115.8 18.8891C116.054 19.3822 115.753 20.0721 115.112 20.5921L121.741 33.438L126.028 19.6325C125.306 19.2323 124.889 18.6056 125.054 18.0757C125.258 17.4179 126.281 17.1584 127.339 17.4961C128.397 17.8338 129.089 18.6408 128.884 19.2986Z" fill="black"/>
<path d="M122.375 40.227C121.354 40.3164 120.424 40.1815 119.587 39.8222C118.75 39.463 118.07 38.9063 117.548 38.1521C117.025 37.3933 116.719 36.497 116.628 35.4633C116.537 34.4249 116.684 33.489 117.067 32.6556C117.45 31.8175 118.023 31.1489 118.785 30.6498C119.547 30.1506 120.438 29.8564 121.46 29.767C122.675 29.6607 123.755 29.8685 124.7 30.3904C125.644 30.9077 126.332 31.6683 126.764 32.6721L124.372 33.7534C124.152 33.2053 123.799 32.7897 123.313 32.5067C122.832 32.2233 122.284 32.1085 121.669 32.1622C120.888 32.2306 120.271 32.545 119.817 33.1056C119.363 33.6661 119.174 34.3756 119.249 35.234C119.324 36.0924 119.633 36.7582 120.178 37.2314C120.722 37.7 121.384 37.9002 122.165 37.8318C122.78 37.7781 123.3 37.5698 123.724 37.2071C124.154 36.8441 124.429 36.3735 124.551 35.7955L127.094 36.4449C126.843 37.5086 126.297 38.3795 125.458 39.0575C124.618 39.7308 123.59 40.1207 122.375 40.227Z" fill="#FFE500"/>
<path d="M68.7225 4.53887C68.1271 3.68828 67.1541 3.1817 66.1159 3.1817H6.36344C4.60618 3.1817 3.18163 4.60625 3.18163 6.36352V63.6362C3.18163 65.3935 4.60618 66.8181 6.36344 66.8181H66.1159C67.1541 66.8181 68.1271 66.3115 68.7225 65.4609L88.768 36.8245C89.5349 35.729 89.5349 34.2708 88.768 33.1752L68.7225 4.53887Z" fill="#FEFEFE"/>
<path fill-rule="evenodd" clip-rule="evenodd" d="M66.1162 0H6.36369C2.84915 0 5.34058e-05 2.8491 5.34058e-05 6.36364V63.6364C5.34058e-05 67.1509 2.84915 70 6.36369 70H66.1162C68.1927 70 70.1386 68.9868 71.3295 67.2857L91.3749 38.6493C92.9087 36.4582 92.9087 33.5418 91.3749 31.3507L71.3295 2.71433C70.1386 1.01316 68.1927 0 66.1162 0ZM66.1162 3.18182C67.1544 3.18182 68.1274 3.6884 68.7228 4.53898L88.7683 33.1753C89.5352 34.2709 89.5352 35.7291 88.7683 36.8246L68.7228 65.461C68.1274 66.3116 67.1544 66.8182 66.1162 66.8182H6.36369C4.60641 66.8182 3.18187 65.3936 3.18187 63.6364V6.36364C3.18187 4.60637 4.60641 3.18182 6.36369 3.18182H66.1162Z" fill="black"/>
<path d="M18.6943 11.1365H22.0967V25.4547H18.8901L18.8155 24.5132C18.5545 24.8985 18.1661 25.1937 17.6503 25.3987C17.1407 25.6038 16.572 25.7064 15.9444 25.7064C15.2856 25.7064 14.6642 25.5914 14.08 25.3614C13.4959 25.1253 12.9832 24.7928 12.542 24.364C12.1007 23.9352 11.7527 23.3946 11.4979 22.742C11.2431 22.0833 11.1157 21.3531 11.1157 20.5514C11.1157 19.7498 11.2431 19.0196 11.4979 18.3608C11.7527 17.7021 12.1007 17.1614 12.542 16.7388C12.9832 16.31 13.4959 15.9807 14.08 15.7507C14.6642 15.5146 15.2856 15.3965 15.9444 15.3965C16.5285 15.3965 17.063 15.4835 17.5477 15.6575C18.0325 15.8315 18.4146 16.0863 18.6943 16.4219V11.1365ZM15.1427 22.2853C15.5653 22.7079 16.0997 22.9192 16.7461 22.9192C17.3924 22.9192 17.9268 22.7079 18.3494 22.2853C18.772 21.8627 18.9833 21.2847 18.9833 20.5514C18.9833 19.8181 18.772 19.2402 18.3494 18.8176C17.933 18.395 17.3986 18.1837 16.7461 18.1837C16.0997 18.1837 15.5653 18.395 15.1427 18.8176C14.7263 19.2402 14.5182 19.8181 14.5182 20.5514C14.5182 21.2847 14.7263 21.8627 15.1427 22.2853Z" fill="black"/>
<path d="M33.2082 22.9564C33.2082 23.8948 33.2828 24.6312 33.4319 25.1657V25.4547H30.3278L30.1227 24.4386C29.7934 24.8425 29.3397 25.1439 28.7618 25.3428C28.1838 25.5417 27.5841 25.6411 26.9627 25.6411C26.6457 25.6411 26.3443 25.6131 26.0585 25.5572C25.7726 25.5075 25.4898 25.4174 25.2102 25.2869C24.9367 25.1502 24.7006 24.9824 24.5017 24.7835C24.3091 24.5784 24.1506 24.3174 24.0263 24.0005C23.9082 23.6773 23.8492 23.3107 23.8492 22.9005C23.8492 22.4966 23.9114 22.133 24.0356 21.8099C24.1599 21.4867 24.3215 21.2164 24.5204 20.9989C24.7192 20.7814 24.9802 20.5856 25.3034 20.4116C25.6266 20.2314 25.9466 20.0885 26.2635 19.9828C26.5805 19.8709 26.9596 19.7591 27.4008 19.6472L28.9855 19.2464C29.3584 19.1532 29.6163 19.0506 29.7592 18.9388C29.9083 18.8207 29.9829 18.6684 29.9829 18.482C29.9829 18.2707 29.9052 18.0998 29.7499 17.9693C29.5945 17.8388 29.4236 17.7549 29.2372 17.7176C29.0507 17.6803 28.8457 17.6617 28.6219 17.6617C28.1434 17.6617 27.7612 17.7642 27.4754 17.9693C27.1957 18.1744 27.0124 18.5193 26.9254 19.004L23.9331 18.51C24.1693 17.4287 24.682 16.6394 25.4712 16.1423C26.2604 15.6451 27.3821 15.3965 28.8363 15.3965C29.1471 15.3965 29.436 15.4089 29.7033 15.4338C29.9705 15.4524 30.2563 15.496 30.5609 15.5643C30.8716 15.6265 31.1481 15.7135 31.3905 15.8253C31.6391 15.931 31.8783 16.077 32.1083 16.2634C32.3444 16.4499 32.5402 16.6674 32.6955 16.916C32.8509 17.1645 32.9752 17.469 33.0684 17.8295C33.1616 18.1899 33.2082 18.5939 33.2082 19.0413V22.9564ZM28.0533 23.4132C28.5691 23.4132 29.0507 23.2143 29.4982 22.8166C29.9456 22.4127 30.1693 21.8596 30.1693 21.1573L27.9415 21.9031C27.6618 21.9963 27.4474 22.0988 27.2983 22.2107C27.1491 22.3163 27.0745 22.4686 27.0745 22.6675C27.0745 22.8974 27.1677 23.0807 27.3542 23.2174C27.5406 23.348 27.7737 23.4132 28.0533 23.4132Z" fill="black"/>
<path d="M39.286 25.4547C38.242 25.4547 37.4403 25.1688 36.881 24.5971C36.3217 24.0191 36.042 23.1988 36.042 22.1361V18.1651H34.1497V15.583H34.709C35.287 15.583 35.722 15.4338 36.0141 15.1355C36.3124 14.8372 36.4615 14.2872 36.4615 13.4856V12.4695H39.5004V15.583H41.3834V18.1651H39.5004V21.7539C39.5004 22.1641 39.5812 22.4624 39.7428 22.6488C39.9106 22.829 40.1653 22.9192 40.5071 22.9192H41.3834V25.4547H39.286Z" fill="black"/>
<path d="M51.9635 22.9564C51.9635 23.8948 52.0381 24.6312 52.1873 25.1657V25.4547H49.0831L48.8781 24.4386C48.5487 24.8425 48.095 25.1439 47.5171 25.3428C46.9391 25.5417 46.3394 25.6411 45.718 25.6411C45.4011 25.6411 45.0996 25.6131 44.8138 25.5572C44.5279 25.5075 44.2452 25.4174 43.9655 25.2869C43.6921 25.1502 43.4559 24.9824 43.2571 24.7835C43.0644 24.5784 42.9059 24.3174 42.7816 24.0005C42.6636 23.6773 42.6045 23.3107 42.6045 22.9005C42.6045 22.4966 42.6667 22.133 42.791 21.8099C42.9153 21.4867 43.0768 21.2164 43.2757 20.9989C43.4746 20.7814 43.7356 20.5856 44.0587 20.4116C44.3819 20.2314 44.7019 20.0885 45.0189 19.9828C45.3358 19.8709 45.7149 19.7591 46.1561 19.6472L47.7408 19.2464C48.1137 19.1532 48.3716 19.0506 48.5145 18.9388C48.6637 18.8207 48.7382 18.6684 48.7382 18.482C48.7382 18.2707 48.6605 18.0998 48.5052 17.9693C48.3498 17.8388 48.1789 17.7549 47.9925 17.7176C47.8061 17.6803 47.601 17.6617 47.3773 17.6617C46.8987 17.6617 46.5166 17.7642 46.2307 17.9693C45.951 18.1744 45.7677 18.5193 45.6807 19.004L42.6884 18.51C42.9246 17.4287 43.4373 16.6394 44.2265 16.1423C45.0158 15.6451 46.1375 15.3965 47.5917 15.3965C47.9024 15.3965 48.1914 15.4089 48.4586 15.4338C48.7258 15.4524 49.0117 15.496 49.3162 15.5643C49.6269 15.6265 49.9034 15.7135 50.1458 15.8253C50.3944 15.931 50.6336 16.077 50.8636 16.2634C51.0997 16.4499 51.2955 16.6674 51.4509 16.916C51.6062 17.1645 51.7305 17.469 51.8237 17.8295C51.9169 18.1899 51.9635 18.5939 51.9635 19.0413V22.9564ZM46.8086 23.4132C47.3244 23.4132 47.8061 23.2143 48.2535 22.8166C48.7009 22.4127 48.9247 21.8596 48.9247 21.1573L46.6968 21.9031C46.4171 21.9963 46.2027 22.0988 46.0536 22.2107C45.9044 22.3163 45.8298 22.4686 45.8298 22.6675C45.8298 22.8974 45.9231 23.0807 46.1095 23.2174C46.2959 23.348 46.529 23.4132 46.8086 23.4132Z" fill="black"/>
<path d="M18.0325 31.3056C18.6912 31.3056 19.3126 31.4237 19.8968 31.6598C20.481 31.8898 20.9937 32.2191 21.4349 32.6479C21.8761 33.0705 22.2241 33.6112 22.4789 34.2699C22.7337 34.9286 22.8611 35.6588 22.8611 36.4605C22.8611 37.2622 22.7337 37.9924 22.4789 38.6511C22.2241 39.3036 21.8761 39.8443 21.4349 40.2731C20.9937 40.7019 20.481 41.0344 19.8968 41.2705C19.3126 41.5005 18.6912 41.6154 18.0325 41.6154C17.4483 41.6154 16.9138 41.5284 16.4291 41.3544C15.9444 41.1742 15.5622 40.9163 15.2825 40.5807V46.0619H11.8801V31.492H15.0868L15.1614 32.4895C15.4224 32.1042 15.8077 31.8121 16.3173 31.6132C16.8268 31.4081 17.3986 31.3056 18.0325 31.3056ZM17.2308 38.8282C17.8771 38.8282 18.4084 38.6169 18.8248 38.1944C19.2474 37.7718 19.4587 37.1938 19.4587 36.4605C19.4587 35.7272 19.2474 35.1493 18.8248 34.7267C18.4084 34.3041 17.8771 34.0928 17.2308 34.0928C16.5783 34.0928 16.0407 34.3041 15.6181 34.7267C15.2018 35.1493 14.9936 35.7272 14.9936 36.4605C14.9936 37.1938 15.2018 37.7718 15.6181 38.1944C16.0407 38.6169 16.5783 38.8282 17.2308 38.8282Z" fill="black"/>
<path d="M27.783 32.9742C28.0564 32.5516 28.5008 32.1818 29.116 31.8649C29.7312 31.5418 30.3806 31.3802 31.0642 31.3802V34.3538C30.4925 34.3538 30.0202 34.3911 29.6473 34.4657C29.2807 34.534 28.9668 34.6614 28.7058 34.8479C28.4448 35.0343 28.2584 35.2891 28.1465 35.6122C28.0347 35.9292 27.9787 36.3393 27.9787 36.8427V41.3637H24.539V31.492H27.783V32.9742Z" fill="black"/>
<path d="M37.2911 41.5502C35.5884 41.5502 34.2181 41.0965 33.1803 40.1892C32.1424 39.2819 31.6235 38.0266 31.6235 36.4232C31.6235 35.3606 31.8628 34.4408 32.3413 33.664C32.8198 32.8872 33.4817 32.2999 34.3268 31.9022C35.1782 31.5045 36.1663 31.3056 37.2911 31.3056C39.0126 31.3056 40.3922 31.7593 41.43 32.6666C42.4678 33.5677 42.9867 34.8199 42.9867 36.4232C42.9867 38.0266 42.4647 39.2819 41.4207 40.1892C40.3829 41.0965 39.0063 41.5502 37.2911 41.5502ZM37.2539 38.9028C37.9747 38.9028 38.5465 38.676 38.9691 38.2223C39.3916 37.7625 39.6029 37.1628 39.6029 36.4232C39.6029 35.6775 39.3916 35.0778 38.9691 34.6241C38.5465 34.1643 37.9747 33.9343 37.2539 33.9343C36.5765 33.9343 36.0327 34.1643 35.6226 34.6241C35.2124 35.084 35.0073 35.6837 35.0073 36.4232C35.0073 37.1628 35.2124 37.7625 35.6226 38.2223C36.0327 38.676 36.5765 38.9028 37.2539 38.9028Z" fill="black"/>
<path d="M48.6264 41.3637C47.5823 41.3637 46.7807 41.0779 46.2214 40.5061C45.6621 39.9282 45.3824 39.1079 45.3824 38.0452V34.0742H43.4901V31.492H44.0494C44.6273 31.492 45.0624 31.3429 45.3544 31.0446C45.6527 30.7463 45.8019 30.1963 45.8019 29.3946V28.3786H48.8408V31.492H50.7238V34.0742H48.8408V37.663C48.8408 38.0732 48.9216 38.3715 49.0831 38.5579C49.2509 38.7381 49.5057 38.8282 49.8475 38.8282H50.7238V41.3637H48.6264Z" fill="black"/>
<path d="M54.3686 30.5412C53.8528 30.5412 53.4115 30.361 53.0449 30.0006C52.6782 29.6401 52.4949 29.202 52.4949 28.6862C52.4949 28.1828 52.6782 27.754 53.0449 27.3998C53.4115 27.0394 53.8528 26.8591 54.3686 26.8591C54.8657 26.8591 55.2945 27.0394 55.655 27.3998C56.0154 27.754 56.1956 28.1828 56.1956 28.6862C56.1956 29.202 56.0154 29.6401 55.655 30.0006C55.2945 30.361 54.8657 30.5412 54.3686 30.5412ZM52.6347 41.3637V31.492H56.0558V41.3637H52.6347Z" fill="black"/>
<path d="M16.5783 57.4593C14.9376 57.4593 13.6077 56.987 12.5886 56.0424C11.5694 55.0915 11.0598 53.8549 11.0598 52.3323C11.0598 50.8035 11.5694 49.57 12.5886 48.6316C13.6077 47.687 14.9376 47.2147 16.5783 47.2147C17.9454 47.2147 19.0765 47.5503 19.9714 48.2214C20.8725 48.8864 21.4225 49.8341 21.6213 51.0646L18.4892 51.3535C18.2904 50.3468 17.6409 49.8434 16.541 49.8434C15.9009 49.8434 15.3944 50.0733 15.0215 50.5332C14.6487 50.9869 14.4622 51.5866 14.4622 52.3323C14.4622 53.0718 14.6487 53.6715 15.0215 54.1314C15.3944 54.5851 15.9009 54.8119 16.541 54.8119C17.6409 54.8119 18.2904 54.3085 18.4892 53.3018L21.6213 53.5907C21.4225 54.815 20.8663 55.7658 19.9527 56.4432C19.0392 57.1206 17.9144 57.4593 16.5783 57.4593Z" fill="black"/>
<path d="M28.0999 57.4593C26.3972 57.4593 25.0269 57.0056 23.989 56.0983C22.9512 55.191 22.4323 53.9356 22.4323 52.3323C22.4323 51.2696 22.6716 50.3499 23.1501 49.5731C23.6286 48.7963 24.2904 48.209 25.1356 47.8113C25.987 47.4135 26.9751 47.2147 28.0999 47.2147C29.8213 47.2147 31.2009 47.6683 32.2388 48.5757C33.2766 49.4768 33.7955 50.729 33.7955 52.3323C33.7955 53.9356 33.2735 55.191 32.2294 56.0983C31.1916 57.0056 29.8151 57.4593 28.0999 57.4593ZM28.0626 54.8119C28.7835 54.8119 29.3552 54.5851 29.7778 54.1314C30.2004 53.6715 30.4117 53.0718 30.4117 52.3323C30.4117 51.5866 30.2004 50.9869 29.7778 50.5332C29.3552 50.0733 28.7835 49.8434 28.0626 49.8434C27.3853 49.8434 26.8415 50.0733 26.4313 50.5332C26.0212 50.9931 25.8161 51.5928 25.8161 52.3323C25.8161 53.0718 26.0212 53.6715 26.4313 54.1314C26.8415 54.5851 27.3853 54.8119 28.0626 54.8119Z" fill="black"/>
<path d="M41.6444 47.4011H45.2333L40.9173 57.2728H37.9343L33.6836 47.4011H37.2539L39.4351 53.4696L41.6444 47.4011Z" fill="black"/>
<path d="M48.0298 46.4503C47.514 46.4503 47.0727 46.2701 46.7061 45.9096C46.3394 45.5492 46.1561 45.1111 46.1561 44.5953C46.1561 44.0919 46.3394 43.6631 46.7061 43.3089C47.0727 42.9484 47.514 42.7682 48.0298 42.7682C48.5269 42.7682 48.9557 42.9484 49.3162 43.3089C49.6766 43.6631 49.8568 44.0919 49.8568 44.5953C49.8568 45.1111 49.6766 45.5492 49.3162 45.9096C48.9557 46.2701 48.5269 46.4503 48.0298 46.4503ZM46.2959 57.2728V47.4011H49.717V57.2728H46.2959Z" fill="black"/>
<path d="M58.9828 42.9547H62.3852V57.2728H59.1786L59.104 56.3313C58.843 56.7166 58.4546 57.0118 57.9388 57.2169C57.4292 57.422 56.8606 57.5245 56.2329 57.5245C55.5742 57.5245 54.9527 57.4095 54.3686 57.1796C53.7844 56.9435 53.2717 56.611 52.8305 56.1822C52.3892 55.7534 52.0412 55.2127 51.7864 54.5602C51.5316 53.9015 51.4042 53.1713 51.4042 52.3696C51.4042 51.5679 51.5316 50.8377 51.7864 50.179C52.0412 49.5203 52.3892 48.9796 52.8305 48.557C53.2717 48.1282 53.7844 47.7988 54.3686 47.5689C54.9527 47.3328 55.5742 47.2147 56.2329 47.2147C56.8171 47.2147 57.3515 47.3017 57.8362 47.4757C58.321 47.6497 58.7032 47.9045 58.9828 48.2401V42.9547ZM55.4312 54.1034C55.8538 54.526 56.3883 54.7373 57.0346 54.7373C57.6809 54.7373 58.2153 54.526 58.6379 54.1034C59.0605 53.6809 59.2718 53.1029 59.2718 52.3696C59.2718 51.6363 59.0605 51.0583 58.6379 50.6358C58.2215 50.2132 57.6871 50.0019 57.0346 50.0019C56.3883 50.0019 55.8538 50.2132 55.4312 50.6358C55.0149 51.0583 54.8067 51.6363 54.8067 52.3696C54.8067 53.1029 55.0149 53.6809 55.4312 54.1034Z" fill="black"/>
</svg>